<?xml version="1.0" standalone="no"?>
<!DOCTYPE svg PUBLIC "-//W3C//DTD SVG 20010904//EN"
 "http://www.w3.org/TR/2001/REC-SVG-20010904/DTD/svg10.dtd">
<svg version="1.0" xmlns="http://www.w3.org/2000/svg"
 width="500.000000pt" height="500.000000pt" viewBox="0 0 500.000000 500.000000"
 preserveAspectRatio="xMidYMid meet">
<metadata>
Created by potrace 1.14, written by Peter Selinger 2001-2017
</metadata>
<g transform="translate(0.000000,500.000000) scale(0.100000,-0.100000)"
fill="#000000" stroke="none">
<path d="M340 3843 c0 -21 -34 -632 -75 -1358 -41 -726 -75 -1330 -75 -1342 0
-23 1 -23 164 -23 l165 0 5 53 c3 28 22 376 43 772 30 585 37 798 37 1137 1
229 2 416 2 415 1 -1 108 -418 238 -927 131 -509 239 -933 242 -942 5 -16 22
-18 183 -18 l177 0 224 941 225 942 2 -99 c11 -495 69 -1676 109 -2191 l6 -83
169 0 169 0 0 23 c0 13 -34 619 -75 1347 -41 728 -75 1338 -75 1357 l0 33
-249 0 -249 0 -5 -22 c-3 -13 -96 -423 -207 -913 -110 -489 -204 -898 -208
-908 -4 -11 -88 322 -227 913 l-220 930 -247 0 -248 0 0 -37z"/>
<path d="M2890 2500 l0 -1380 175 0 175 0 0 1380 0 1380 -175 0 -175 0 0
-1380z"/>
<path d="M4287 3818 c-29 -35 -275 -325 -545 -645 l-492 -583 563 -734 562
-735 223 0 223 -1 -48 63 c-26 34 -285 370 -575 745 l-528 684 28 33 c15 18
254 299 532 624 278 326 507 596 508 602 2 5 -76 9 -196 9 l-200 0 -55 -62z"/>
</g>
</svg>
